<?xml version="1.0" encoding="UTF-8"?>
<!DOCTYPE svg PUBLIC "-//W3C//DTD SVG 1.1//EN" "http://www.w3.org/Graphics/SVG/1.1/DTD/svg11.dtd">
<!-- Creator: CorelDRAW X8 -->
<svg xmlns="http://www.w3.org/2000/svg" xml:space="preserve" width="151px" height="30px" version="1.1" shape-rendering="geometricPrecision" text-rendering="geometricPrecision" image-rendering="optimizeQuality" fill-rule="evenodd" clip-rule="evenodd"
viewBox="0 0 151 30"
 xmlns:xlink="http://www.w3.org/1999/xlink">
 <g id="Camada_x0020_1">
  <metadata id="CorelCorpID_0Corel-Layer"/>
  <g id="_1414721004976">
   <g>
    <path fill="#FAFBFB" d="M12 23c-1,1 0,2 1,2 2,0 2,-2 3,-4 1,-1 1,-2 2,-2 0,0 0,0 1,1 0,0 0,1 0,1 0,1 -1,1 -2,1 -1,0 -1,1 0,1l0 1c1,0 1,1 1,1 1,0 2,0 2,0 1,0 4,-1 4,-1 0,0 0,-1 0,-1 1,0 1,0 2,0 1,-1 0,-1 2,0 1,0 3,0 4,0 1,0 1,0 1,0 0,0 0,0 -1,-1 0,0 -1,0 -1,0 -1,0 -4,0 -4,-2 0,-1 0,-2 -1,-3 -1,-6 -4,-6 -4,-8 2,-1 2,-1 1,-4 0,-2 -1,-4 -2,-4 -2,-1 -2,0 -3,0 0,0 -1,-1 -2,-1 0,0 -1,1 -1,2 0,2 2,2 2,4 0,1 0,2 -1,3 -1,2 -2,2 -1,4 0,4 -1,4 -1,6 0,1 0,2 0,3 -1,0 -2,0 -2,1 0,0 0,0 0,0zm9 -13c-1,-1 -2,0 -2,-1 0,-2 0,-3 1,-3 1,-1 2,-2 2,-3 -1,0 -1,0 -1,1 -1,1 -3,3 -2,5 0,1 1,1 2,1z"/>
    <path fill="#FAFBFB" d="M9 25c0,-2 -1,-1 -2,-1 0,-1 1,-1 1,-1 1,-1 0,-1 1,-2 0,1 -1,1 0,2 0,0 0,1 1,2 0,0 0,0 1,-1 0,-1 -1,1 -1,-1 0,-2 1,-4 1,-5 0,-2 -1,-2 -1,-3 1,0 2,0 2,-1 -1,-1 0,-2 -1,-2 -1,-1 -1,-1 -1,-1l0 -1c0,0 0,0 0,0 -1,0 -1,1 -1,2 -1,0 -1,0 -1,0 -2,1 0,2 -3,4 -1,1 -2,2 -2,3 -1,2 0,4 -1,4 0,0 -1,-2 -1,-2 0,-2 1,-3 1,-4 1,-1 1,-2 0,-3 -1,0 -2,1 -2,2 0,0 1,0 1,0 1,1 -2,4 0,7 1,2 2,2 4,2 1,0 3,0 4,0z"/>
   </g>
   <path fill="#FAFBFB" fill-rule="nonzero" d="M46 18l-3 0 0 5c0,1 0,1 -1,1 0,1 -1,1 -1,1 -1,0 -1,0 -1,-1 -1,0 -1,0 -1,-1l0 -14c0,-1 0,-2 1,-2 0,0 1,0 1,0l5 0c2,0 3,0 3,0 1,0 2,0 2,1 1,0 1,1 1,2 1,0 1,1 1,2 0,2 -1,3 -2,4 -1,1 -3,2 -5,2zm-1 -9l-2 0 0 6 2 0c1,0 2,0 2,0 1,-1 1,-1 2,-1 0,-1 0,-1 0,-2 0,-1 0,-1 -1,-2 0,0 -1,-1 -3,-1z"/>
   <path id="1" fill="#FAFBFB" fill-rule="nonzero" d="M64 19l-6 0c0,1 0,1 0,2 0,1 1,1 1,1 1,1 1,1 2,1 0,0 1,0 1,0 0,0 1,-1 1,-1 0,0 1,0 1,0 0,-1 0,-1 1,-1 0,-1 0,-1 1,-1 0,0 0,1 0,1 1,0 1,0 1,1 0,0 0,0 -1,1 0,0 0,0 -1,1 0,0 -1,0 -1,1 -1,0 -2,0 -3,0 -2,0 -4,-1 -5,-2 -1,-1 -2,-3 -2,-5 0,-1 0,-2 1,-3 0,0 0,-1 1,-2 0,0 1,-1 2,-1 1,-1 2,-1 3,-1 1,0 2,1 3,1 1,1 2,1 2,2 1,1 1,2 1,3 0,1 0,1 -1,2 0,0 -1,0 -2,0zm-6 -2l6 0c0,-1 -1,-2 -1,-3 -1,0 -1,0 -2,0 -1,0 -2,0 -2,1 -1,0 -1,1 -1,2z"/>
   <path id="2" fill="#FAFBFB" fill-rule="nonzero" d="M70 12l0 0 0 -2c0,-1 0,-1 0,-2 0,0 1,0 1,0 0,-1 0,-1 0,-1 1,0 1,0 1,0 1,0 1,0 1,0 0,0 1,1 1,1 0,0 0,1 0,1l0 3 1 0c0,0 1,0 1,0 0,0 0,0 0,1 0,0 0,1 0,1 0,0 -1,0 -2,0l0 0 0 6c0,1 0,1 0,1 0,1 0,1 0,1 0,0 1,0 1,0 0,0 0,0 1,0 0,0 0,0 1,0 0,0 0,0 0,1 0,0 1,0 1,0 0,1 -1,1 -1,2 -1,0 -2,0 -3,0 -1,0 -2,0 -2,0 -1,-1 -1,-1 -1,-2 -1,-1 -1,-1 -1,-2l0 -7 0 0c-1,0 -1,0 -1,0 0,-1 -1,-1 -1,-1 0,-1 1,-1 1,-1 0,0 1,0 1,0z"/>
   <path id="3" fill="#FAFBFB" fill-rule="nonzero" d="M90 21c0,1 -1,1 -1,2 0,1 -1,1 -2,2 -1,0 -2,0 -3,0 -1,0 -2,0 -3,-1 -1,0 -2,0 -2,-1 -1,0 -1,-1 -1,-2 0,0 0,0 1,-1 0,0 0,0 1,0 0,0 0,0 0,0 1,1 1,1 1,1 0,1 1,1 1,1 1,1 1,1 2,1 1,0 1,0 2,-1 0,0 0,0 0,-1 0,0 0,-1 0,-1 -1,0 -1,0 -2,-1 -2,0 -3,0 -3,-1 -1,0 -2,0 -2,-1 -1,0 -1,-1 -1,-2 0,0 0,-1 1,-2 0,0 1,-1 2,-1 0,-1 1,-1 3,-1 0,0 1,0 2,1 1,0 1,0 2,0 0,1 0,1 1,1 0,1 0,1 0,1 0,1 0,1 0,1 -1,1 -1,1 -1,1 -1,0 -1,0 -1,-1 -1,0 -1,0 -1,0 0,-1 -1,-1 -1,-1 0,0 -1,-1 -1,-1 -1,0 -2,1 -2,1 0,0 -1,0 -1,1 0,0 1,0 1,1 0,0 1,0 1,0 1,0 1,1 2,1 1,0 2,0 3,1 0,0 1,1 1,1 1,0 1,1 1,2z"/>
   <path id="4" fill="#FAFBFB" fill-rule="nonzero" d="M96 13l0 1c0,-1 1,-2 2,-2 0,0 1,-1 2,-1 1,0 2,1 3,1 1,1 1,1 2,2 0,2 1,3 1,4 0,1 0,2 -1,3 0,1 0,2 -1,2 0,1 -1,1 -2,2 0,0 -1,0 -2,0 -1,0 -2,0 -2,-1 -1,0 -2,0 -2,-1l0 5c0,1 -1,2 -2,2 -1,0 -1,0 -1,-1 0,0 -1,0 -1,-1l0 -15c0,0 1,-1 1,-1 0,-1 1,-1 1,-1 1,0 1,0 1,1 1,0 1,1 1,1zm6 5c0,-1 0,-2 0,-2 0,-1 -1,-1 -1,-2 -1,0 -1,0 -2,0 -1,0 -2,0 -2,1 -1,1 -1,2 -1,3 0,2 0,3 1,3 0,1 1,1 2,1 1,0 1,0 2,0 0,0 1,-1 1,-2 0,0 0,-1 0,-2z"/>
   <path id="5" fill="#FAFBFB" fill-rule="nonzero" d="M118 19l-7 0c0,1 0,1 1,2 0,1 0,1 1,1 0,1 1,1 2,1 0,0 0,0 1,0 0,0 0,-1 1,-1 0,0 0,0 0,0 1,-1 1,-1 2,-1 0,-1 0,-1 0,-1 1,0 1,1 1,1 0,0 0,0 0,1 0,0 0,0 0,1 0,0 -1,0 -1,1 0,0 -1,0 -2,1 -1,0 -1,0 -2,0 -3,0 -4,-1 -5,-2 -2,-1 -2,-3 -2,-5 0,-1 0,-2 0,-3 1,0 1,-1 2,-2 0,0 1,-1 2,-1 0,-1 1,-1 2,-1 2,0 3,1 4,1 1,1 1,1 2,2 0,1 1,2 1,3 0,1 -1,1 -1,2 -1,0 -1,0 -2,0zm-7 -2l6 0c0,-1 0,-2 -1,-3 0,0 -1,0 -2,0 -1,0 -1,0 -2,1 0,0 -1,1 -1,2z"/>
   <path id="6" fill="#FAFBFB" fill-rule="nonzero" d="M133 19l-7 0c0,1 0,1 1,2 0,1 0,1 1,1 0,1 1,1 2,1 0,0 0,0 1,0 0,0 0,-1 1,-1 0,0 0,0 1,0 0,-1 0,-1 1,-1 0,-1 0,-1 0,-1 1,0 1,1 1,1 0,0 0,0 0,1 0,0 0,0 0,1 0,0 0,0 -1,1 0,0 -1,0 -2,1 0,0 -1,0 -2,0 -2,0 -4,-1 -5,-2 -2,-1 -2,-3 -2,-5 0,-1 0,-2 0,-3 1,0 1,-1 2,-2 0,0 1,-1 2,-1 1,-1 1,-1 2,-1 2,0 3,1 4,1 1,1 2,1 2,2 0,1 1,2 1,3 0,1 -1,1 -1,2 -1,0 -1,0 -2,0zm-7 -2l6 0c0,-1 0,-2 -1,-3 0,0 -1,0 -2,0 0,0 -1,0 -2,1 0,0 -1,1 -1,2z"/>
   <path id="7" fill="#FAFBFB" fill-rule="nonzero" d="M148 23l0 0c-1,0 -1,1 -2,1 0,0 0,1 -1,1 0,0 -1,0 -2,0 0,0 -1,0 -2,0 -1,-1 -1,-1 -2,-2 0,-1 -1,-1 -1,-2 0,-1 0,-2 0,-3 0,-2 0,-4 1,-5 1,-1 3,-2 4,-2 1,0 2,1 3,1 1,0 1,1 2,1l0 -5c0,0 0,-1 0,-1 0,-1 1,-1 1,-1 1,0 1,0 2,1 0,0 0,1 0,1l0 15c0,1 0,1 0,2 -1,0 -1,0 -2,0 0,0 0,0 -1,0 0,-1 0,-1 0,-2zm-7 -5c0,1 0,2 1,3 0,0 0,1 1,1 0,0 1,0 1,0 1,0 2,0 2,0 0,0 1,-1 1,-1 0,-1 1,-2 1,-3 0,-1 -1,-2 -1,-2 0,-1 -1,-1 -1,-2 -1,0 -1,0 -2,0 0,0 -1,0 -1,0 -1,1 -1,1 -1,2 -1,1 -1,1 -1,2z"/>
  </g>
 </g>
</svg>
