<?xml version="1.0" encoding="UTF-8"?>
<!DOCTYPE svg PUBLIC "-//W3C//DTD SVG 1.1//EN" "http://www.w3.org/Graphics/SVG/1.1/DTD/svg11.dtd">
<!-- Creator: CorelDRAW X8 -->
<svg xmlns="http://www.w3.org/2000/svg" xml:space="preserve" width="479px" height="346px" version="1.1" shape-rendering="geometricPrecision" text-rendering="geometricPrecision" image-rendering="optimizeQuality" fill-rule="evenodd" clip-rule="evenodd"
viewBox="0 0 476 343"
 xmlns:xlink="http://www.w3.org/1999/xlink">
 <g id="Camada_x0020_1">
  <metadata id="CorelCorpID_0Corel-Layer"/>
  <path fill="#262838" d="M315 108c-8,0 -38,-1 -43,0l-1 5c16,3 32,1 48,1 -2,11 -9,33 -5,42 4,0 4,-1 6,-5 4,12 4,2 4,19l0 97 -22 -3 0 -51c1,-4 0,-1 2,-2l3 -1 -5 -3c4,0 5,0 8,-1 -1,-1 -1,-1 -1,-1l-2 -1c-2,0 -3,0 -5,0 2,-2 1,-1 5,-2l-4 -2c0,0 -1,0 -1,0 0,-10 2,-16 -7,-19 -9,2 -5,5 -8,9 -11,-5 -14,-3 -24,0 -1,-8 -4,-10 -12,-7 -2,3 -2,4 -3,10 0,5 -2,3 -4,8l-7 -1c3,5 1,1 6,4 -3,1 -2,0 -4,0 -2,1 -1,-1 -4,2 3,1 1,0 3,1 2,0 0,-2 5,1 -4,1 -4,0 -5,3l5 -1c3,6 5,7 5,15l0 54 -5 -8c-6,-10 -10,-11 -20,-18l-11 -89c-1,-13 14,-13 24,-16 11,-3 14,-13 0,-13l-59 0c-5,8 -11,21 -16,30 -6,10 -12,21 -17,31 -5,10 -15,22 -10,35 3,5 7,9 15,9 9,1 13,-4 17,-7 -1,4 -1,8 -2,12 -1,14 -4,5 -18,22 -10,12 -10,26 -15,40 -21,-6 -35,-29 -35,-50 0,-3 1,-6 0,-10l-1 -2c-8,-3 -6,15 -5,21 3,25 19,38 40,48 1,19 -7,5 -8,21l52 1c0,0 0,-1 0,-1l2 -3c10,4 23,6 33,1 1,0 1,0 1,0 1,4 9,3 14,3 13,0 96,-1 100,0 9,2 -6,7 26,7 18,0 16,-7 24,-7 9,-1 21,0 31,0l64 0c4,0 4,1 6,-1 -3,-2 -9,-1 -13,-2 5,-4 11,-9 9,-20 -2,-8 -9,-15 -18,-15 -21,-1 -27,24 -11,35l-16 1c-2,-10 -4,-3 -5,-14 -3,-16 6,-12 -50,-12 -2,3 0,2 -3,4 -3,-4 -9,-4 -11,-7 -4,-4 -3,-19 -15,-28 -7,-5 -5,-8 -5,-18 0,-7 0,-14 0,-22 0,-21 -1,-56 0,-76 0,-5 1,-5 3,-8 3,3 1,3 6,3 3,-10 -3,-31 -5,-42 8,-1 15,4 24,2l11 -2c5,0 9,0 13,0 2,-8 -1,-6 -9,-6 -5,0 -11,0 -17,-1 -3,-1 -16,-33 -19,-39 -5,-10 -4,-13 -4,-24 0,-7 -2,-7 1,-12 2,-3 4,-5 3,-10l-5 2c1,-3 1,-4 0,-6 -4,2 -3,2 -5,4 0,-7 0,-4 -1,-6l-1 -1c0,0 0,0 0,0l-7 9c-4,4 -9,1 -14,10 -3,7 -10,9 -8,18 3,12 7,-13 7,27 0,28 -1,18 5,29z"/>
  <path fill="#EED2E6" d="M251 224l3 2c0,0 -3,0 -3,0l0 5c0,0 3,0 3,0 3,1 1,0 3,2l-6 0 0 4c1,0 2,0 3,1l-3 5 6 1c-4,3 -2,2 -6,2l0 80c-5,2 -6,3 -7,8 7,-1 3,-5 9,-5 -2,3 -2,2 -3,5 9,0 1,-3 9,-6 -1,3 -1,4 -3,6l7 0 0 -50c3,1 2,-5 2,11l0 38 6 1c2,-3 1,-3 3,-5 5,-7 4,3 8,-18 1,-5 2,-9 3,-14 1,-6 2,-11 4,-14 1,3 -7,40 -8,42 -2,5 -5,0 -7,9l8 0c2,-7 6,-6 7,-10 2,-5 2,-10 3,-15 3,-6 5,-8 7,-12 2,-3 2,-9 3,-12 1,-2 0,-1 2,-2l-2 10 4 -2c1,-1 2,-1 3,-2 3,-2 5,-3 7,-2 -4,5 -11,3 -17,14 -5,8 -7,14 -8,26 -5,2 -5,1 -7,7 12,-1 2,-5 10,-5l-3 5c10,0 3,-3 10,-5 -1,2 -1,3 -3,4 5,2 22,1 27,1 5,-10 6,-10 18,-10 5,0 6,-1 8,2 -8,2 -25,-3 -23,10 2,8 20,5 28,5 19,-1 25,-29 -2,-33 -4,-22 -12,-33 -32,-39 -8,-2 -15,-2 -22,-3l0 -20 -7 0c0,-1 1,-1 1,-1 0,0 0,0 0,0 6,-2 5,1 6,-3 1,-5 -3,-1 -7,-4 3,-1 2,0 4,0 3,-2 1,1 3,-3 -2,-5 -4,0 -7,-4 5,-1 7,2 7,-3 0,-4 -2,-1 -7,-2 0,-1 1,-1 1,-1l6 -1c1,-9 0,-21 0,-30 0,-5 0,-11 -5,-10 -6,0 -5,5 -5,10 -5,0 -2,-1 -7,-3 -10,-5 -17,1 -22,3 0,-7 -1,-11 -8,-10 -4,5 -1,4 -2,10 -1,5 -11,10 -4,20 4,5 3,0 4,10z"/>
  <path fill="#F5B7A9" d="M157 325c-5,2 -6,2 -7,9 8,0 3,-3 10,-7 -1,4 -2,3 -3,7 10,0 2,-4 11,-6 -2,3 -2,2 -4,6l9 0c1,-7 7,-59 8,-73l3 -21c2,-3 -1,0 2,-3 0,11 -7,64 -9,82l-1 10c2,6 22,6 34,1 1,-9 -8,-68 -10,-87l1 -5c0,0 0,0 0,0l12 96 9 0c-2,-5 -2,-2 -4,-6 5,0 3,0 5,3 2,4 -1,3 6,3 -1,-5 -1,-2 -3,-7 9,4 1,7 11,7 -2,-7 -4,-6 -8,-10l-15 -130c-4,1 -5,2 -9,3 -4,1 -8,1 -11,3 2,4 4,2 3,7 0,3 -3,3 -6,2 -4,-6 0,-5 1,-9 -2,-2 -6,-2 -10,-3 -4,-1 -6,-3 -9,-4l-16 132z"/>
  <g id="_1414651885840">
   <path fill="black" d="M63 126c1,0 1,0 2,-1 11,-2 23,5 26,17 4,0 6,0 10,4 4,4 3,7 3,13l0 3 -3 0c-14,0 -29,0 -43,0 -10,0 -20,0 -30,0 -3,0 -13,0 -15,-1 -9,-2 -12,-16 -13,-23 -1,-13 5,-24 16,-30 13,-7 27,-6 38,4 4,3 7,8 9,14z"/>
  </g>
  <path fill="#D4E4F4" d="M101 159c0,-6 1,-8 -3,-11 -3,-4 -4,-3 -10,-3 -1,-13 -13,-19 -23,-17 -2,1 -2,1 -4,2 -1,-6 -5,-12 -9,-16 -10,-9 -22,-10 -34,-4 -24,12 -15,45 -4,49 3,1 80,0 87,0z"/>
  <path fill="#F5B7A9" d="M174 184c12,8 26,8 38,0 2,-10 -7,-28 3,-32 11,-5 26,-4 28,-12 -9,3 -6,3 -12,-3l-52 0 -5 47z"/>
  <path fill="#279849" d="M320 59l-8 0c-1,9 -1,28 0,36 1,13 13,15 25,12 -3,-3 -5,-6 -7,-12 -2,-6 -3,-13 -1,-19 5,-20 9,-4 9,-32 0,-7 -2,-11 -6,-14 -4,-3 -11,-3 -15,0 -11,9 2,18 3,29z"/>
  <path fill="#F5B7A9" d="M132 324c-4,4 -7,3 -8,10 11,0 2,-4 11,-6 -2,4 -2,2 -3,6 11,0 1,-6 11,-6l-4 5 8 1c5,-8 0,-6 9,-11l7 -67c-11,4 -18,14 -23,26 -6,12 -7,28 -8,42z"/>
  <g id="_1414726083888">
   <path fill="black" d="M123 46c5,-14 30,-15 37,-1 5,-2 11,-1 15,1 8,4 8,8 9,16l0 3 -85 0 0 -2c0,-8 2,-15 10,-17 3,-2 8,-3 12,-2 1,1 1,1 2,2z"/>
  </g>
  <path fill="#D4E4F4" d="M125 50c-3,-1 -6,-6 -15,-2 -6,2 -8,8 -8,15l79 0c-1,-7 0,-11 -7,-15 -5,-2 -12,-2 -15,2 -4,-18 -33,-15 -34,0z"/>
  <path fill="#F5B7A9" d="M240 334c3,-3 1,-3 3,-6 3,-3 3,-2 5,-4 0,-20 4,-43 -11,-58 -4,-4 -8,-8 -14,-10l7 64c2,8 3,0 8,10l2 4z"/>
  <path fill="#E9A667" d="M326 268l9 4c1,-12 1,-112 -1,-120 -3,3 0,2 -4,4 -4,-1 0,0 -4,-4 -1,8 -1,103 0,116z"/>
  <path fill="#E73948" d="M363 114c-1,-4 -23,-50 -25,-52 -6,10 -12,22 -5,36 5,9 15,18 30,16z"/>
  <path fill="#D4E4F4" d="M372 311c-1,3 2,11 2,16l45 0 -2 -17c-8,0 -40,-1 -45,1z"/>
  <path fill="white" d="M436 322c4,9 11,13 23,11 -1,-15 3,-15 9,-22 -1,-3 -1,-3 -3,-5 -5,-6 -14,-8 -18,-5 -4,2 2,14 -11,21z"/>
  <path fill="#E9C36C" d="M433 31c-13,4 -6,23 7,17 9,-3 6,-22 -7,-17z"/>
  <circle fill="black" cx="194" cy="148" r="5"/>
  <circle fill="black" cx="252" cy="203" r="3"/>
  <circle fill="black" cx="286" cy="203" r="3"/>
  <path fill="yellow" d="M313 48l-3 -8 -3 3c0,0 -2,4 -2,7 1,4 8,-2 8,-2z"/>
  <path fill="yellow" d="M313 51l-5 3c0,0 2,3 5,3 3,1 3,-1 3,-1 0,0 -1,-4 -3,-5z"/>
  <path fill="#279849" d="M325 25l7 -8 -1 8 6 -5 -1 7 5 -2 -3 8c0,0 -5,-6 -13,-8z"/>
  <circle fill="black" cx="323" cy="40" r="3"/>
  <path fill="#CDD6DD" stroke="black" stroke-width="2.34574" d="M89 313l22 7 0 0 0 0c0,0 2,-3 5,-3 3,-1 5,5 4,7 -1,1 -4,1 -4,1 0,0 1,2 1,3 0,1 -1,6 -5,5 -3,-2 -3,-5 -3,-5l-22 -8c-1,2 -3,3 -6,2 -4,-1 -2,-6 -1,-7 0,0 2,-1 2,-1 0,0 -2,-1 -2,-4 1,-2 6,-5 8,-3 2,2 1,6 1,6z"/>
  <path fill="#CDD6DD" stroke="black" stroke-width="2.34574" d="M61 324l23 0 0 0 0 0c0,0 1,-3 3,-5 3,-1 7,4 6,6 0,2 -3,2 -3,2 0,0 2,2 2,3 1,0 1,6 -3,5 -4,0 -5,-3 -5,-3l-23 0c-1,1 -2,3 -5,3 -4,1 -4,-5 -3,-5 0,-1 2,-3 2,-3 0,0 -3,0 -3,-2 -1,-2 3,-7 6,-6 2,2 3,5 3,5z"/>
  <g id="_1414726059568">
   <path fill="none" stroke="black" stroke-width="2.34574" d="M262 208c0,0 3,4 6,1"/>
   <path fill="none" stroke="black" stroke-width="2.34574" d="M273 208c0,0 -3,4 -6,1"/>
   <path fill="black" stroke="black" stroke-width="0.893727" d="M268 204c0,0 -2,0 -3,1 0,0 2,3 2,3l3 -1c0,0 3,-3 -2,-3z"/>
  </g>
  <rect fill="#E9C36C" x="435" width="1.98684" height="21.847"/>
  <rect fill="#E9C36C" transform="matrix(0.749557 -0.661939 0.661939 0.749557 408.128 10.7795)" width="1.98684" height="21.847"/>
  <rect fill="#E9C36C" transform="matrix(0.832072 0.554668 -0.554668 0.832072 457.214 6.23692)" width="1.98684" height="21.847"/>
  <rect fill="#E9C36C" transform="matrix(0.0618386 -0.998086 0.998086 0.0618386 395.226 38.9066)" width="1.98684" height="21.847"/>
  <rect fill="#E9C36C" x="435" y="59" width="1.98684" height="21.847"/>
  <rect fill="#E9C36C" transform="matrix(0.749557 -0.661939 0.661939 0.749557 447.17 54.9894)" width="1.98684" height="21.847"/>
  <rect fill="#E9C36C" transform="matrix(0.832072 0.554668 -0.554668 0.832072 424.499 55.3136)" width="1.98684" height="21.847"/>
  <rect fill="#E9C36C" transform="matrix(0.0618386 -0.998086 0.998086 0.0618386 454.094 42.5539)" width="1.98684" height="21.847"/>
 </g>
</svg>
