<svg xmlns="http://www.w3.org/2000/svg" xmlns:xlink="http://www.w3.org/1999/xlink" version="1.1" width="32" height="9" enable-background="new 0 0 122.88 122.88" xml:space="preserve" style=""><rect id="backgroundrect" width="100%" height="100%" x="0" y="0" fill="none" stroke="none"/>

<g class="currentLayer" style=""><title>Layer 1</title><g id="svg_1" class="">
	<g id="svg_2">
		<path fill-rule="evenodd" clip-rule="evenodd" fill="#FAFBFB" d="M2.9171498107910168,5.539338806152344 c-0.269,0.19700000000000004 -0.128,0.35000000000000003 0.18800000000000003,0.38300000000000006 c0.47800000000000004,0.05000000000000001 0.5740000000000001,-0.37900000000000006 0.8250000000000001,-0.8740000000000001 c0.08000000000000002,-0.15600000000000003 0.20800000000000002,-0.452 0.30600000000000005,-0.5640000000000001 c0.12100000000000001,0.08800000000000002 0.14700000000000002,0.17700000000000002 0.231,0.31400000000000006 c0.06200000000000001,0.10200000000000001 0.19800000000000004,0.21600000000000003 0.19500000000000003,0.3360000000000001 c-0.137,0.11200000000000002 -0.28800000000000003,0.05300000000000001 -0.49000000000000005,0.08800000000000002 c-0.29100000000000004,0.05000000000000001 -0.453,0.33100000000000007 -0.023000000000000007,0.35800000000000004 l-0.06300000000000001,0.19400000000000003 c0.10700000000000001,0.07800000000000001 0.171,0.16600000000000004 0.3350000000000001,0.18800000000000003 c0.15700000000000003,0.020000000000000004 0.31600000000000006,-0.028000000000000004 0.461,-0.05500000000000001 c0.14,-0.026000000000000006 0.792,-0.101 0.8480000000000001,-0.16800000000000004 c0.09700000000000003,-0.09900000000000003 -0.008000000000000002,-0.14900000000000002 0.12400000000000001,-0.22800000000000004 c0.07500000000000001,-0.04400000000000001 0.18900000000000003,-0.05900000000000001 0.275,-0.09500000000000003 c0.252,-0.10400000000000001 0.171,-0.07100000000000001 0.558,0.036000000000000004 c0.265,0.07300000000000001 0.6780000000000002,0.138 0.9580000000000001,0.133 c0.14300000000000002,-0.0020000000000000005 0.21500000000000002,0.004000000000000001 0.27,-0.09300000000000003 c-0.038000000000000006,-0.10300000000000001 -0.10500000000000001,-0.101 -0.22700000000000004,-0.11300000000000002 c-0.11500000000000002,-0.012000000000000002 -0.21700000000000003,-0.023000000000000007 -0.3330000000000001,-0.037000000000000005 c-0.267,-0.031000000000000007 -0.9670000000000001,-0.17800000000000002 -0.992,-0.49700000000000005 c-0.020000000000000004,-0.253 0.014000000000000002,-0.44200000000000006 -0.03400000000000001,-0.7050000000000001 c-0.267,-1.469 -0.988,-1.463 -1.084,-1.9100000000000001 c0.465,-0.24800000000000003 0.48100000000000004,-0.42200000000000004 0.36700000000000005,-1.083 c-0.07600000000000001,-0.44100000000000006 -0.24600000000000002,-0.8 -0.5850000000000001,-0.9490000000000001 c-0.403,-0.17800000000000002 -0.537,0.012000000000000002 -0.6110000000000001,0.024000000000000004 c-0.17800000000000002,0.028000000000000004 -0.38600000000000007,-0.21000000000000002 -0.532,-0.22200000000000003 c-0.16100000000000003,-0.012000000000000002 -0.276,0.30600000000000005 -0.30100000000000005,0.459 c-0.08400000000000002,0.502 0.5640000000000001,0.44100000000000006 0.502,1.016 c-0.021000000000000005,0.19400000000000003 -0.10900000000000001,0.42000000000000004 -0.17800000000000002,0.5800000000000001 c-0.255,0.5930000000000001 -0.47300000000000003,0.48600000000000004 -0.41000000000000003,1.117 c0.09900000000000003,0.995 -0.06300000000000001,0.8770000000000001 -0.11700000000000002,1.372 c-0.019000000000000003,0.17400000000000002 0.020000000000000004,0.555 -0.128,0.6380000000000001 c-0.06300000000000001,0.035 -0.32200000000000006,0.028000000000000004 -0.37600000000000006,0.20700000000000002 C2.848149810791014,5.484338806152344 2.8811498107910154,5.473338806152341 2.9171498107910168,5.539338806152344 L2.9171498107910168,5.539338806152344 zM4.947149810791018,2.3303388061523407 c-0.22600000000000003,0.11400000000000002 -0.41800000000000004,0.008000000000000002 -0.47900000000000004,-0.19800000000000004 c-0.14700000000000002,-0.49900000000000005 0.35300000000000004,-0.901 0.5830000000000001,-1.207 c0.08800000000000002,-0.11700000000000002 0.06700000000000002,-0.14700000000000002 0.137,-0.21000000000000002 c0.06500000000000002,0.16300000000000003 -0.27,0.453 -0.38800000000000007,0.6080000000000001 c-0.16200000000000003,0.21400000000000002 -0.32700000000000007,0.44400000000000006 -0.261,0.7560000000000001 C4.590149810791019,2.3283388061523453 4.746149810791017,2.262338806152343 4.947149810791018,2.3303388061523407 z" id="svg_3"/>
		<path fill-rule="evenodd" clip-rule="evenodd" fill="#FAFBFB" d="M2.196149810791013,5.8783388061523425 c-0.008000000000000002,-0.3400000000000001 -0.32100000000000006,-0.16700000000000004 -0.47600000000000003,-0.24500000000000002 c0.04200000000000001,-0.06600000000000002 0.08000000000000002,-0.08200000000000002 0.129,-0.137 c0.22000000000000003,-0.24600000000000002 0.14900000000000002,-0.3460000000000001 0.19700000000000004,-0.532 c0.016000000000000004,0.262 -0.014000000000000002,0.28200000000000003 0.08400000000000002,0.49700000000000005 c0.06500000000000002,0.14400000000000002 0.08500000000000002,0.278 0.15300000000000002,0.41500000000000004 c0.16100000000000003,0 0.202,0.05300000000000001 0.3410000000000001,-0.04100000000000001 c0.030000000000000006,-0.31000000000000005 -0.18500000000000003,0.05600000000000001 -0.24800000000000003,-0.43600000000000005 c-0.05900000000000001,-0.457 0.23700000000000002,-0.783 0.24300000000000002,-1.183 c0.003000000000000001,-0.28400000000000003 -0.17400000000000002,-0.36800000000000005 -0.138,-0.5800000000000001 c0.04000000000000001,-0.06500000000000002 0.43000000000000005,-0.05200000000000001 0.32700000000000007,-0.35900000000000004 c-0.07100000000000001,-0.21300000000000002 0.04400000000000001,-0.30400000000000005 -0.28800000000000003,-0.502 c-0.07400000000000001,-0.04300000000000001 -0.08800000000000002,-0.06600000000000002 -0.11700000000000002,-0.138 l-0.04600000000000001,-0.16500000000000004 c-0.020000000000000004,-0.05500000000000001 -0.007000000000000002,-0.022000000000000006 -0.024000000000000004,-0.05000000000000001 c-0.23900000000000002,0.035 -0.17,0.24200000000000002 -0.29300000000000004,0.3400000000000001 c-0.023000000000000007,0.019000000000000003 -0.04600000000000001,0.026000000000000006 -0.08200000000000002,0.05700000000000001 c-0.40800000000000003,0.3470000000000001 -0.022000000000000006,0.43600000000000005 -0.6890000000000002,1.075 c-0.21300000000000002,0.20400000000000001 -0.47700000000000004,0.43200000000000005 -0.6150000000000001,0.6610000000000001 c-0.24200000000000002,0.403 -0.028000000000000004,0.934 -0.08400000000000002,1.049 c-0.18900000000000003,-0.03300000000000001 -0.28400000000000003,-0.48600000000000004 -0.275,-0.6910000000000002 c0.012000000000000002,-0.271 0.16000000000000003,-0.534 0.24800000000000003,-0.7430000000000001 c0.09800000000000003,-0.231 0.17700000000000002,-0.5960000000000001 -0.031000000000000007,-0.7560000000000001 c-0.19800000000000004,-0.15200000000000002 -0.549,0.10600000000000001 -0.509,0.3490000000000001 c0.11100000000000002,0.08100000000000002 0.18500000000000003,0.05100000000000001 0.28200000000000003,0.129 c0.12200000000000001,0.19600000000000004 -0.458,0.994 0.035,1.734 c0.21500000000000002,0.32300000000000006 0.36200000000000004,0.258 0.807,0.259 C1.4721498107910165,5.887338806152343 1.8751498107910152,5.870338806152347 2.196149810791013,5.8783388061523425 z" id="svg_4"/>
	</g>
	<text transform="matrix(1,0,0,1,52.2432,64.2656) " id="svg_5" y="-57.838661193847656" x="-43.362850189208984"><tspan x="-43.362850189208984" y="-57.838661193847656" fill="#FAFBFB" font-family="'ArialRoundedMTBold'" font-size="6.071" id="svg_6">P</tspan><tspan x="-39.313850189208985" y="-57.838661193847656" fill="#FAFBFB" font-family="'ArialRoundedMTBold'" font-size="6.071" id="svg_7">etspeed</tspan></text>
</g></g></svg>